<svg width="63" height="72" viewBox="0 0 63 72" fill="none" xmlns="http://www.w3.org/2000/svg">
<g filter="url(#filter0_f_627_8056)">
<ellipse cx="31.5013" cy="64.9226" rx="8.83333" ry="3.07692" fill="black" fill-opacity="0.1"/>
</g>
<g filter="url(#filter1_d_627_8056)">
<path fill-rule="evenodd" clip-rule="evenodd" d="M31.501 4C46.1371 4 58.0019 15.5717 58.0019 29.8462C58.0019 40.7908 51.0268 50.1466 41.1755 53.9159L33.0104 64.8008C32.8402 65.0287 32.6142 65.2146 32.3514 65.343C32.0887 65.4714 31.797 65.5385 31.501 65.5385C31.2049 65.5385 30.9132 65.4714 30.6505 65.343C30.3878 65.2146 30.1618 65.0287 29.9916 64.8008L21.8264 53.9159C11.9751 50.1466 5 40.7908 5 29.8462C5 15.5717 16.8649 4 31.501 4Z" fill="white"/>
</g>
<path d="M52.9552 29.845C52.9552 18.2895 43.3503 8.92188 31.502 8.92188C19.6537 8.92188 10.0488 18.2895 10.0488 29.845C10.0488 41.4004 19.6537 50.768 31.502 50.768C43.3503 50.768 52.9552 41.4004 52.9552 29.845Z" fill="#FF89FD"/>
<path d="M37.6661 21.6661V24.9994M39.3327 23.3327H35.9994M30.1802 22.3444C30.2159 22.1532 30.3174 21.9806 30.467 21.8563C30.6166 21.7321 30.8049 21.6641 30.9994 21.6641C31.1939 21.6641 31.3822 21.7321 31.5318 21.8563C31.6814 21.9806 31.7829 22.1532 31.8186 22.3444L32.6944 26.9761C32.7566 27.3053 32.9166 27.6082 33.1536 27.8452C33.3905 28.0822 33.6934 28.2422 34.0227 28.3044L38.6544 29.1802C38.8456 29.2159 39.0182 29.3174 39.1425 29.467C39.2667 29.6166 39.3347 29.8049 39.3347 29.9994C39.3347 30.1939 39.2667 30.3822 39.1425 30.5318C39.0182 30.6814 38.8456 30.7829 38.6544 30.8186L34.0227 31.6944C33.6934 31.7566 33.3905 31.9166 33.1536 32.1536C32.9166 32.3905 32.7566 32.6934 32.6944 33.0227L31.8186 37.6544C31.7829 37.8456 31.6814 38.0182 31.5318 38.1425C31.3822 38.2667 31.1939 38.3347 30.9994 38.3347C30.8049 38.3347 30.6166 38.2667 30.467 38.1425C30.3174 38.0182 30.2159 37.8456 30.1802 37.6544L29.3044 33.0227C29.2422 32.6934 29.0822 32.3905 28.8452 32.1536C28.6082 31.9166 28.3053 31.7566 27.9761 31.6944L23.3444 30.8186C23.1532 30.7829 22.9806 30.6814 22.8563 30.5318C22.7321 30.3822 22.6641 30.1939 22.6641 29.9994C22.6641 29.8049 22.7321 29.6166 22.8563 29.467C22.9806 29.3174 23.1532 29.2159 23.3444 29.1802L27.9761 28.3044C28.3053 28.2422 28.6082 28.0822 28.8452 27.8452C29.0822 27.6082 29.2422 27.3053 29.3044 26.9761L30.1802 22.3444Z" stroke="black" stroke-width="1.4" stroke-linecap="round" stroke-linejoin="round"/>
<path d="M24.3327 38.3333C25.2532 38.3333 25.9993 37.5871 25.9993 36.6667C25.9993 35.7462 25.2532 35 24.3327 35C23.4122 35 22.666 35.7462 22.666 36.6667C22.666 37.5871 23.4122 38.3333 24.3327 38.3333Z" stroke="black" stroke-width="1.4" stroke-linecap="round" stroke-linejoin="round"/>
<defs>
<filter id="filter0_f_627_8056" x="20.668" y="59.8457" width="21.666" height="10.1543" filterUnits="userSpaceOnUse" color-interpolation-filters="sRGB">
<feFlood flood-opacity="0" result="BackgroundImageFix"/>
<feBlend mode="normal" in="SourceGraphic" in2="BackgroundImageFix" result="shape"/>
<feGaussianBlur stdDeviation="1" result="effect1_foregroundBlur_627_8056"/>
</filter>
<filter id="filter1_d_627_8056" x="0" y="0" width="63.002" height="71.5391" filterUnits="userSpaceOnUse" color-interpolation-filters="sRGB">
<feFlood flood-opacity="0" result="BackgroundImageFix"/>
<feColorMatrix in="SourceAlpha" type="matrix" values="0 0 0 0 0 0 0 0 0 0 0 0 0 0 0 0 0 0 127 0" result="hardAlpha"/>
<feOffset dy="1"/>
<feGaussianBlur stdDeviation="2.5"/>
<feComposite in2="hardAlpha" operator="out"/>
<feColorMatrix type="matrix" values="0 0 0 0 0 0 0 0 0 0 0 0 0 0 0 0 0 0 0.1 0"/>
<feBlend mode="normal" in2="BackgroundImageFix" result="effect1_dropShadow_627_8056"/>
<feBlend mode="normal" in="SourceGraphic" in2="effect1_dropShadow_627_8056" result="shape"/>
</filter>
</defs>
</svg>
