<svg width="63" height="72" viewBox="0 0 63 72" fill="none" xmlns="http://www.w3.org/2000/svg">
<g filter="url(#filter0_f_627_8052)">
<ellipse cx="31.5013" cy="64.9226" rx="8.83333" ry="3.07692" fill="black" fill-opacity="0.1"/>
</g>
<g filter="url(#filter1_d_627_8052)">
<path fill-rule="evenodd" clip-rule="evenodd" d="M31.501 4C46.1371 4 58.0019 15.5717 58.0019 29.8462C58.0019 40.7908 51.0268 50.1466 41.1755 53.9159L33.0104 64.8008C32.8402 65.0287 32.6142 65.2146 32.3514 65.343C32.0887 65.4714 31.797 65.5385 31.501 65.5385C31.2049 65.5385 30.9132 65.4714 30.6505 65.343C30.3878 65.2146 30.1618 65.0287 29.9916 64.8008L21.8264 53.9159C11.9751 50.1466 5 40.7908 5 29.8462C5 15.5717 16.8649 4 31.501 4Z" fill="white"/>
</g>
<path d="M52.9552 29.845C52.9552 18.2895 43.3503 8.92188 31.502 8.92188C19.6537 8.92188 10.0488 18.2895 10.0488 29.845C10.0488 41.4004 19.6537 50.768 31.502 50.768C43.3503 50.768 52.9552 41.4004 52.9552 29.845Z" fill="#FFAB45"/>
<path d="M23.291 36.7077L24.5744 35.4244M39.4244 20.5744L40.7077 19.291M29.7994 30.1994L34.1994 25.7994M37.129 28.7034C37.4729 29.0473 37.9393 29.2405 38.4257 29.2405C38.912 29.2405 39.3784 29.0473 39.7223 28.7034C40.0662 28.3595 40.2594 27.8931 40.2594 27.4068C40.2594 26.9204 40.0662 26.454 39.7223 26.1101L38.1016 24.4904C38.4455 24.8341 38.9119 25.0272 39.3981 25.0271C39.6389 25.0271 39.8773 24.9796 40.0997 24.8874C40.3221 24.7953 40.5242 24.6602 40.6944 24.4899C40.8646 24.3196 40.9996 24.1175 41.0917 23.8951C41.1838 23.6726 41.2312 23.4342 41.2312 23.1934C41.2311 22.9527 41.1837 22.7143 41.0915 22.4918C40.9993 22.2694 40.8642 22.0673 40.694 21.8971L38.1016 19.3048C37.7579 18.9609 37.2916 18.7677 36.8053 18.7676C36.3191 18.7675 35.8527 18.9606 35.5088 19.3043C35.1649 19.6481 34.9717 20.1144 34.9716 20.6006C34.9715 21.0869 35.1646 21.5532 35.5084 21.8971L33.8886 20.2765C33.7183 20.1062 33.5162 19.9711 33.2937 19.879C33.0713 19.7868 32.8328 19.7394 32.592 19.7394C32.3512 19.7394 32.1127 19.7868 31.8903 19.879C31.6678 19.9711 31.4657 20.1062 31.2954 20.2765C31.1251 20.4467 30.99 20.6489 30.8979 20.8714C30.8057 21.0938 30.7583 21.3323 30.7583 21.5731C30.7583 21.8139 30.8057 22.0523 30.8979 22.2748C30.99 22.4973 31.1251 22.6994 31.2954 22.8697L37.129 28.7034ZM25.8971 36.694C26.2409 37.0378 26.7072 37.2311 27.1934 37.2312C27.4342 37.2312 27.6726 37.1838 27.8951 37.0917C28.1175 36.9996 28.3196 36.8646 28.4899 36.6944C28.6602 36.5242 28.7953 36.3221 28.8874 36.0997C28.9796 35.8773 29.0271 35.6389 29.0271 35.3981C29.0272 35.1574 28.9798 34.9189 28.8877 34.6965C28.7956 34.474 28.6606 34.2719 28.4904 34.1016L30.1101 35.7223C30.454 36.0662 30.9204 36.2594 31.4068 36.2594C31.8931 36.2594 32.3595 36.0662 32.7034 35.7223C33.0473 35.3784 33.2405 34.912 33.2405 34.4257C33.2405 33.9393 33.0473 33.4729 32.7034 33.129L26.8697 27.2954C26.6994 27.1251 26.4973 26.99 26.2748 26.8979C26.0523 26.8057 25.8139 26.7583 25.5731 26.7583C25.3323 26.7583 25.0938 26.8057 24.8714 26.8979C24.6489 26.99 24.4467 27.1251 24.2765 27.2954C24.1062 27.4657 23.9711 27.6678 23.879 27.8903C23.7868 28.1127 23.7394 28.3512 23.7394 28.592C23.7394 28.8328 23.7868 29.0713 23.879 29.2937C23.9711 29.5162 24.1062 29.7183 24.2765 29.8886L25.8971 31.5084C25.5532 31.1646 25.0869 30.9715 24.6006 30.9716C24.1144 30.9717 23.6481 31.1649 23.3043 31.5088C22.9606 31.8527 22.7675 32.3191 22.7676 32.8053C22.7677 33.2916 22.9609 33.7579 23.3048 34.1016L25.8971 36.694Z" stroke="black" stroke-width="1.6" stroke-linecap="round" stroke-linejoin="round"/>
<defs>
<filter id="filter0_f_627_8052" x="20.668" y="59.8457" width="21.666" height="10.1543" filterUnits="userSpaceOnUse" color-interpolation-filters="sRGB">
<feFlood flood-opacity="0" result="BackgroundImageFix"/>
<feBlend mode="normal" in="SourceGraphic" in2="BackgroundImageFix" result="shape"/>
<feGaussianBlur stdDeviation="1" result="effect1_foregroundBlur_627_8052"/>
</filter>
<filter id="filter1_d_627_8052" x="0" y="0" width="63.002" height="71.5391" filterUnits="userSpaceOnUse" color-interpolation-filters="sRGB">
<feFlood flood-opacity="0" result="BackgroundImageFix"/>
<feColorMatrix in="SourceAlpha" type="matrix" values="0 0 0 0 0 0 0 0 0 0 0 0 0 0 0 0 0 0 127 0" result="hardAlpha"/>
<feOffset dy="1"/>
<feGaussianBlur stdDeviation="2.5"/>
<feComposite in2="hardAlpha" operator="out"/>
<feColorMatrix type="matrix" values="0 0 0 0 0 0 0 0 0 0 0 0 0 0 0 0 0 0 0.1 0"/>
<feBlend mode="normal" in2="BackgroundImageFix" result="effect1_dropShadow_627_8052"/>
<feBlend mode="normal" in="SourceGraphic" in2="effect1_dropShadow_627_8052" result="shape"/>
</filter>
</defs>
</svg>
