<svg width="63" height="72" viewBox="0 0 63 72" fill="none" xmlns="http://www.w3.org/2000/svg">
<g filter="url(#filter0_f_627_8058)">
<ellipse cx="31.5013" cy="64.9226" rx="8.83333" ry="3.07692" fill="black" fill-opacity="0.1"/>
</g>
<g filter="url(#filter1_d_627_8058)">
<path fill-rule="evenodd" clip-rule="evenodd" d="M31.501 4C46.1371 4 58.0019 15.5717 58.0019 29.8462C58.0019 40.7908 51.0268 50.1466 41.1755 53.9159L33.0104 64.8008C32.8402 65.0287 32.6142 65.2146 32.3514 65.343C32.0887 65.4714 31.797 65.5385 31.501 65.5385C31.2049 65.5385 30.9132 65.4714 30.6505 65.343C30.3878 65.2146 30.1618 65.0287 29.9916 64.8008L21.8264 53.9159C11.9751 50.1466 5 40.7908 5 29.8462C5 15.5717 16.8649 4 31.501 4Z" fill="white"/>
</g>
<path d="M52.9552 29.845C52.9552 18.2895 43.3503 8.92188 31.502 8.92188C19.6537 8.92188 10.0488 18.2895 10.0488 29.845C10.0488 41.4004 19.6537 50.768 31.502 50.768C43.3503 50.768 52.9552 41.4004 52.9552 29.845Z" fill="#4E92FF"/>
<path d="M22.666 24.9993C23.166 25.416 23.666 25.8327 24.7493 25.8327C26.8327 25.8327 26.8327 24.166 28.916 24.166C31.0827 24.166 30.916 25.8327 33.0827 25.8327C35.166 25.8327 35.166 24.166 37.2493 24.166C38.3327 24.166 38.8327 24.5827 39.3327 24.9993M22.666 29.9993C23.166 30.416 23.666 30.8327 24.7493 30.8327C26.8327 30.8327 26.8327 29.166 28.916 29.166C31.0827 29.166 30.916 30.8327 33.0827 30.8327C35.166 30.8327 35.166 29.166 37.2493 29.166C38.3327 29.166 38.8327 29.5827 39.3327 29.9993M22.666 34.9993C23.166 35.416 23.666 35.8327 24.7493 35.8327C26.8327 35.8327 26.8327 34.166 28.916 34.166C31.0827 34.166 30.916 35.8327 33.0827 35.8327C35.166 35.8327 35.166 34.166 37.2493 34.166C38.3327 34.166 38.8327 34.5827 39.3327 34.9993" stroke="black" stroke-width="1.4" stroke-linecap="round" stroke-linejoin="round"/>
<defs>
<filter id="filter0_f_627_8058" x="20.668" y="59.8457" width="21.666" height="10.1543" filterUnits="userSpaceOnUse" color-interpolation-filters="sRGB">
<feFlood flood-opacity="0" result="BackgroundImageFix"/>
<feBlend mode="normal" in="SourceGraphic" in2="BackgroundImageFix" result="shape"/>
<feGaussianBlur stdDeviation="1" result="effect1_foregroundBlur_627_8058"/>
</filter>
<filter id="filter1_d_627_8058" x="0" y="0" width="63.002" height="71.5391" filterUnits="userSpaceOnUse" color-interpolation-filters="sRGB">
<feFlood flood-opacity="0" result="BackgroundImageFix"/>
<feColorMatrix in="SourceAlpha" type="matrix" values="0 0 0 0 0 0 0 0 0 0 0 0 0 0 0 0 0 0 127 0" result="hardAlpha"/>
<feOffset dy="1"/>
<feGaussianBlur stdDeviation="2.5"/>
<feComposite in2="hardAlpha" operator="out"/>
<feColorMatrix type="matrix" values="0 0 0 0 0 0 0 0 0 0 0 0 0 0 0 0 0 0 0.1 0"/>
<feBlend mode="normal" in2="BackgroundImageFix" result="effect1_dropShadow_627_8058"/>
<feBlend mode="normal" in="SourceGraphic" in2="effect1_dropShadow_627_8058" result="shape"/>
</filter>
</defs>
</svg>
