<svg width="63" height="72" viewBox="0 0 63 72" fill="none" xmlns="http://www.w3.org/2000/svg">
<g filter="url(#filter0_f_627_8056)">
<ellipse cx="31.5013" cy="64.9226" rx="8.83333" ry="3.07692" fill="black" fill-opacity="0.1"/>
</g>
<g filter="url(#filter1_d_627_8056)">
<path fill-rule="evenodd" clip-rule="evenodd" d="M31.501 4C46.1371 4 58.0019 15.5717 58.0019 29.8462C58.0019 40.7908 51.0268 50.1466 41.1755 53.9159L33.0104 64.8008C32.8402 65.0287 32.6142 65.2146 32.3514 65.343C32.0887 65.4714 31.797 65.5385 31.501 65.5385C31.2049 65.5385 30.9132 65.4714 30.6505 65.343C30.3878 65.2146 30.1618 65.0287 29.9916 64.8008L21.8264 53.9159C11.9751 50.1466 5 40.7908 5 29.8462C5 15.5717 16.8649 4 31.501 4Z" fill="white"/>
</g>
<path d="M52.9552 29.8459C52.9552 18.2904 43.3503 8.92285 31.502 8.92285C19.6537 8.92285 10.0488 18.2904 10.0488 29.8459C10.0488 41.4014 19.6537 50.769 31.502 50.769C43.3503 50.769 52.9552 41.4014 52.9552 29.8459Z" fill="#FF89FD"/>
<path d="M37.6661 21.667V25.0004M39.3327 23.3337H35.9994M30.1802 22.3454C30.2159 22.1542 30.3174 21.9815 30.467 21.8573C30.6166 21.7331 30.8049 21.665 30.9994 21.665C31.1939 21.665 31.3822 21.7331 31.5318 21.8573C31.6814 21.9815 31.7829 22.1542 31.8186 22.3454L32.6944 26.977C32.7566 27.3063 32.9166 27.6092 33.1536 27.8462C33.3905 28.0831 33.6934 28.2432 34.0227 28.3054L38.6544 29.1812C38.8456 29.2169 39.0182 29.3183 39.1425 29.4679C39.2667 29.6176 39.3347 29.8059 39.3347 30.0004C39.3347 30.1948 39.2667 30.3832 39.1425 30.5328C39.0182 30.6824 38.8456 30.7838 38.6544 30.8195L34.0227 31.6954C33.6934 31.7576 33.3905 31.9176 33.1536 32.1546C32.9166 32.3915 32.7566 32.6944 32.6944 33.0237L31.8186 37.6554C31.7829 37.8465 31.6814 38.0192 31.5318 38.1434C31.3822 38.2677 31.1939 38.3357 30.9994 38.3357C30.8049 38.3357 30.6166 38.2677 30.467 38.1434C30.3174 38.0192 30.2159 37.8465 30.1802 37.6554L29.3044 33.0237C29.2422 32.6944 29.0822 32.3915 28.8452 32.1546C28.6082 31.9176 28.3053 31.7576 27.9761 31.6954L23.3444 30.8195C23.1532 30.7838 22.9806 30.6824 22.8563 30.5328C22.7321 30.3832 22.6641 30.1948 22.6641 30.0004C22.6641 29.8059 22.7321 29.6176 22.8563 29.4679C22.9806 29.3183 23.1532 29.2169 23.3444 29.1812L27.9761 28.3054C28.3053 28.2432 28.6082 28.0831 28.8452 27.8462C29.0822 27.6092 29.2422 27.3063 29.3044 26.977L30.1802 22.3454Z" stroke="black" stroke-width="1.4" stroke-linecap="round" stroke-linejoin="round"/>
<path d="M24.3327 38.3333C25.2532 38.3333 25.9993 37.5871 25.9993 36.6667C25.9993 35.7462 25.2532 35 24.3327 35C23.4122 35 22.666 35.7462 22.666 36.6667C22.666 37.5871 23.4122 38.3333 24.3327 38.3333Z" stroke="black" stroke-width="1.4" stroke-linecap="round" stroke-linejoin="round"/>
<defs>
<filter id="filter0_f_627_8056" x="20.668" y="59.8457" width="21.666" height="10.1543" filterUnits="userSpaceOnUse" color-interpolation-filters="sRGB">
<feFlood flood-opacity="0" result="BackgroundImageFix"/>
<feBlend mode="normal" in="SourceGraphic" in2="BackgroundImageFix" result="shape"/>
<feGaussianBlur stdDeviation="1" result="effect1_foregroundBlur_627_8056"/>
</filter>
<filter id="filter1_d_627_8056" x="0" y="0" width="63.002" height="71.5381" filterUnits="userSpaceOnUse" color-interpolation-filters="sRGB">
<feFlood flood-opacity="0" result="BackgroundImageFix"/>
<feColorMatrix in="SourceAlpha" type="matrix" values="0 0 0 0 0 0 0 0 0 0 0 0 0 0 0 0 0 0 127 0" result="hardAlpha"/>
<feOffset dy="1"/>
<feGaussianBlur stdDeviation="2.5"/>
<feComposite in2="hardAlpha" operator="out"/>
<feColorMatrix type="matrix" values="0 0 0 0 0 0 0 0 0 0 0 0 0 0 0 0 0 0 0.1 0"/>
<feBlend mode="normal" in2="BackgroundImageFix" result="effect1_dropShadow_627_8056"/>
<feBlend mode="normal" in="SourceGraphic" in2="effect1_dropShadow_627_8056" result="shape"/>
</filter>
</defs>
</svg>
