<svg width="63" height="72" viewBox="0 0 63 72" fill="none" xmlns="http://www.w3.org/2000/svg">
<g filter="url(#filter0_f_627_8052)">
<ellipse cx="31.5013" cy="64.9226" rx="8.83333" ry="3.07692" fill="black" fill-opacity="0.1"/>
</g>
<g filter="url(#filter1_d_627_8052)">
<path fill-rule="evenodd" clip-rule="evenodd" d="M31.501 4C46.1371 4 58.0019 15.5717 58.0019 29.8462C58.0019 40.7908 51.0268 50.1466 41.1755 53.9159L33.0104 64.8008C32.8402 65.0287 32.6142 65.2146 32.3514 65.343C32.0887 65.4714 31.797 65.5385 31.501 65.5385C31.2049 65.5385 30.9132 65.4714 30.6505 65.343C30.3878 65.2146 30.1618 65.0287 29.9916 64.8008L21.8264 53.9159C11.9751 50.1466 5 40.7908 5 29.8462C5 15.5717 16.8649 4 31.501 4Z" fill="white"/>
</g>
<path d="M52.9552 29.8459C52.9552 18.2904 43.3503 8.92285 31.502 8.92285C19.6537 8.92285 10.0488 18.2904 10.0488 29.8459C10.0488 41.4014 19.6537 50.769 31.502 50.769C43.3503 50.769 52.9552 41.4014 52.9552 29.8459Z" fill="#FFAB45"/>
<path d="M23.291 36.7087L24.5744 35.4254M39.4244 20.5754L40.7077 19.292M29.7994 30.2004L34.1994 25.8004M37.129 28.7044C37.4729 29.0482 37.9393 29.2414 38.4257 29.2414C38.912 29.2414 39.3784 29.0482 39.7223 28.7044C40.0662 28.3605 40.2594 27.8941 40.2594 27.4077C40.2594 26.9214 40.0662 26.455 39.7223 26.1111L38.1016 24.4914C38.4455 24.8351 38.9119 25.0282 39.3981 25.0281C39.6389 25.0281 39.8773 24.9806 40.0997 24.8884C40.3221 24.7963 40.5242 24.6612 40.6944 24.4909C40.8646 24.3206 40.9996 24.1185 41.0917 23.896C41.1838 23.6736 41.2312 23.4352 41.2312 23.1944C41.2311 22.9536 41.1837 22.7152 41.0915 22.4928C40.9993 22.2704 40.8642 22.0683 40.694 21.8981L38.1016 19.3058C37.7579 18.9619 37.2916 18.7686 36.8053 18.7686C36.3191 18.7685 35.8527 18.9615 35.5088 19.3053C35.1649 19.6491 34.9717 20.1154 34.9716 20.6016C34.9715 21.0879 35.1646 21.5542 35.5084 21.8981L33.8886 20.2774C33.7183 20.1072 33.5162 19.9721 33.2937 19.8799C33.0713 19.7878 32.8328 19.7404 32.592 19.7404C32.3512 19.7404 32.1127 19.7878 31.8903 19.8799C31.6678 19.9721 31.4657 20.1072 31.2954 20.2774C31.1251 20.4477 30.99 20.6499 30.8979 20.8723C30.8057 21.0948 30.7583 21.3333 30.7583 21.5741C30.7583 21.8149 30.8057 22.0533 30.8979 22.2758C30.99 22.4983 31.1251 22.7004 31.2954 22.8707L37.129 28.7044ZM25.8971 36.6949C26.2409 37.0388 26.7072 37.2321 27.1934 37.2321C27.4342 37.2322 27.6726 37.1848 27.8951 37.0927C28.1175 37.0006 28.3196 36.8656 28.4899 36.6954C28.6602 36.5252 28.7953 36.3231 28.8874 36.1007C28.9796 35.8783 29.0271 35.6399 29.0271 35.3991C29.0272 35.1583 28.9798 34.9199 28.8877 34.6975C28.7956 34.475 28.6606 34.2729 28.4904 34.1026L30.1101 35.7233C30.454 36.0672 30.9204 36.2603 31.4068 36.2603C31.8931 36.2603 32.3595 36.0672 32.7034 35.7233C33.0473 35.3794 33.2405 34.913 33.2405 34.4266C33.2405 33.9403 33.0473 33.4739 32.7034 33.13L26.8697 27.2964C26.6994 27.1261 26.4973 26.991 26.2748 26.8989C26.0523 26.8067 25.8139 26.7593 25.5731 26.7593C25.3323 26.7593 25.0938 26.8067 24.8714 26.8989C24.6489 26.991 24.4467 27.1261 24.2765 27.2964C24.1062 27.4666 23.9711 27.6688 23.879 27.8912C23.7868 28.1137 23.7394 28.3522 23.7394 28.593C23.7394 28.8338 23.7868 29.0722 23.879 29.2947C23.9711 29.5172 24.1062 29.7193 24.2765 29.8896L25.8971 31.5094C25.5532 31.1656 25.0869 30.9725 24.6006 30.9726C24.1144 30.9727 23.6481 31.1659 23.3043 31.5098C22.9606 31.8537 22.7675 32.3201 22.7676 32.8063C22.7677 33.2925 22.9609 33.7588 23.3048 34.1026L25.8971 36.6949Z" stroke="black" stroke-width="1.6" stroke-linecap="round" stroke-linejoin="round"/>
<defs>
<filter id="filter0_f_627_8052" x="20.668" y="59.8457" width="21.666" height="10.1543" filterUnits="userSpaceOnUse" color-interpolation-filters="sRGB">
<feFlood flood-opacity="0" result="BackgroundImageFix"/>
<feBlend mode="normal" in="SourceGraphic" in2="BackgroundImageFix" result="shape"/>
<feGaussianBlur stdDeviation="1" result="effect1_foregroundBlur_627_8052"/>
</filter>
<filter id="filter1_d_627_8052" x="0" y="0" width="63.002" height="71.5381" filterUnits="userSpaceOnUse" color-interpolation-filters="sRGB">
<feFlood flood-opacity="0" result="BackgroundImageFix"/>
<feColorMatrix in="SourceAlpha" type="matrix" values="0 0 0 0 0 0 0 0 0 0 0 0 0 0 0 0 0 0 127 0" result="hardAlpha"/>
<feOffset dy="1"/>
<feGaussianBlur stdDeviation="2.5"/>
<feComposite in2="hardAlpha" operator="out"/>
<feColorMatrix type="matrix" values="0 0 0 0 0 0 0 0 0 0 0 0 0 0 0 0 0 0 0.1 0"/>
<feBlend mode="normal" in2="BackgroundImageFix" result="effect1_dropShadow_627_8052"/>
<feBlend mode="normal" in="SourceGraphic" in2="effect1_dropShadow_627_8052" result="shape"/>
</filter>
</defs>
</svg>
